<svg width="32" height="17" viewBox="0 0 32 17" fill="none" xmlns="http://www.w3.org/2000/svg">
<path d="M0.648 7.104H0V3.228H0.648V2.58H1.284V1.944H3.876V2.58H4.524V3.228H5.172V5.82H1.296V6.456H1.932V7.104H3.228V6.456H5.172V7.104H4.524V7.752H3.876V8.4H1.284V7.752H0.648V7.104ZM3.876 4.524V3.864H3.228V3.216H1.932V3.864H1.296V4.524H3.876Z" fill="white"/>
<path d="M5.82422 0H7.12022V7.104H7.76822V8.4H6.47222V7.752H5.82422V0Z" fill="white"/>
<path d="M8.41406 5.172V3.876H20.0661V5.172H8.41406Z" fill="white"/>
<path d="M12.512 11.876H11.876V11.228H9.932V11.876H9.284V14.456H9.932V15.104H11.876V14.456H12.512V11.876ZM8.636 15.104H8V11.228H8.636V10.58H9.284V9.944H11.876V10.58H12.512V8H13.808V16.4H12.512V15.752H11.876V16.4H9.284V15.752H8.636V15.104Z" fill="white"/>
<path d="M15.105 15.104H14.457V9.932H15.753V14.456H16.401V15.104H17.697V14.456H18.345V9.932H19.617V16.4H18.321V15.752H17.697V16.4H15.753V15.752H15.105V15.104Z" fill="white"/>
<path d="M21.5655 11.876V14.456H22.2015V15.104H24.1455V14.456H24.7935V13.82H26.0775V15.104H25.4415V15.752H24.7935V16.4H21.5535V15.752H20.9175V14.456H20.2695V11.876H20.9175V10.58H21.5535V9.944H24.7935V10.58H25.4415V11.228H26.0775V12.524H24.7935V11.876H24.1455V11.228H22.2015V11.876H21.5655Z" fill="white"/>
<path d="M26.7266 8H28.0226V12.524H28.6706V11.876H29.3186V11.228H29.9786V10.58H31.2506V11.876H30.6146V12.524H29.9666V13.82H30.6146V15.104H31.2506V16.4H29.9666V15.104H29.3186V14.456H28.6706V13.82H28.0226V16.4H26.7266V8Z" fill="white"/>
</svg>
